Coordinates
version=1
nRows=21
nColumns=33
inDegrees=yes

Units are S.I. units (second, meters, Newtons, ...)
Angles are in degrees.

endheader
time	ground_thorax_rot_x	ground_thorax_rot_y	ground_thorax_rot_z	ground_thorax_tx	ground_thorax_ty	ground_thorax_tz	clav_prot_r	clav_elev_r	scapula_abduction_r	scapula_elevation_r	scapula_upward_rot_r	scapula_winging_r	shoulder_elv_r	plane_of_elev_r	axial_rot_r	elbow_flexion_r	pro_sup_r	wrist_flex_r	wrist_dev_r	clav_prot_l	clav_elev_l	scapula_abduction_l	scapula_elevation_l	scapula_upward_rot_l	scapula_winging_l	shoulder_elv_l	plane_of_elev_l	axial_rot_l	elbow_flexion_l	pro_sup_l	wrist_flex_l	wrist_dev_l
      4.99000000	     39.00804639	      9.70511219	      7.94163092	   -222.58061750	    843.31977670	      7.53822929	     14.72276096	     37.47357003	     36.85809125	     45.00000000	    -45.00000000	   1713.88114012	  -1185.58620980	    147.47775308	    179.99999979	   1808.13893683	     56.58141976	     26.23475735	     10.25885636	     11.02333077	    -45.00000000	    -39.02316540	     45.00000000	    -43.39483050	  -2780.75763442	  -1533.21381394	    138.94079758	    171.52887054	   1088.18783209	     20.71083831	      8.10014172	    -22.73548249
      5.00000000	     39.04638430	      9.74735246	      8.03255698	   -222.71538679	    842.54477309	      7.32123509	     14.85150910	     37.36077272	     36.80169491	     45.00000000	    -45.00000000	   1713.94991622	  -1185.62976147	    147.52609246	    179.99999979	   1808.14878565	     56.64033935	     26.41803243	     10.76614658	     11.13404883	    -45.00000000	    -38.82094411	     45.00000000	    -43.64237055	  -2780.74947302	  -1533.27501950	    138.87370972	    171.95536970	   1088.05118600	     21.02364084	      7.76858038	    -22.52557972
      5.01000000	     39.06060507	      9.86277368	      8.18449566	   -222.60300020	    841.77130407	      7.13794419	     14.80372983	     37.47590819	     36.73283588	     45.00000000	    -45.00000000	   1714.08613381	  -1185.64707813	    147.57665226	    179.99999979	   1808.15397739	     56.55322752	     26.20378722	     10.37280393	     11.16772595	    -45.00000000	    -38.89300842	     45.00000000	    -44.00481304	  -2780.90133999	  -1533.34710502	    138.85276706	    172.05720292	   1088.01408751	     21.47699282	      7.88400054	    -22.76160274
      5.02000000	     39.06646212	      9.82865990	      8.29320346	   -222.28248508	    841.02688621	      6.98567332	     14.84485280	     37.28143637	     36.75469228	     45.00000000	    -45.00000000	   1714.10357441	  -1185.69246075	    147.52165673	    179.99999979	   1808.21426020	     56.58477949	     26.30353953	     10.58023135	     11.26117775	    -45.00000000	    -38.79299865	     45.00000000	    -43.95698588	  -2780.88769962	  -1533.36640059	    138.78645246	    172.29548817	   1087.96591168	     21.91106016	      7.61637733	    -22.71348139
      5.03000000	     39.07474792	      9.89580442	      8.37747536	   -221.80087083	    840.33971382	      6.86075359	     14.83304929	     37.54259774	     36.66039886	     45.00000000	    -45.00000000	   1714.20965433	  -1185.64416925	    147.62475206	    179.99999979	   1808.37448407	     56.52683524	     26.13939618	     10.30620302	     11.22963261	    -45.00000000	    -38.96131210	     45.00000000	    -44.01270212	  -2780.98695219	  -1533.41248913	    138.83411478	    172.36803553	   1088.11636407	     22.42716581	      7.64505685	    -22.89238090
      5.04000000	     39.06247365	      9.82758058	      8.57270324	   -221.20990627	    839.73463908	      6.75744700	     14.85305593	     37.14513546	     36.76226716	     45.00000000	    -45.00000000	   1714.14404390	  -1185.68191107	    147.47796723	    179.99999979	   1808.33878746	     56.58312915	     26.18262485	     10.40862481	     11.36188469	    -45.00000000	    -38.70148190	     45.00000000	    -43.72888685	  -2780.96370827	  -1533.41788985	    138.68933846	    172.47308020	   1087.91553456	     22.90309627	      7.39945576	    -22.84112534
      5.05000000	     39.05251979	      9.63721413	      8.50099784	   -220.55476927	    839.22784152	      6.66864864	     14.87500791	     37.53138746	     36.71831549	     45.00000000	    -45.00000000	   1714.24809119	  -1185.59812024	    147.43862427	    179.99999979	   1808.54553028	     56.59809025	     26.11806055	     10.24136951	     11.08197565	    -45.00000000	    -38.71933391	     45.00000000	    -43.74616262	  -2781.14857866	  -1533.31961344	    138.72682349	    172.44898797	   1088.13552654	     23.49607380	      7.38470298	    -22.99436512
      5.06000000	     38.99437658	      9.58310110	      8.63377892	   -219.87297772	    838.83293749	      6.58779172	     14.89828598	     37.35012871	     36.80407640	     45.00000000	    -45.00000000	   1714.24584459	  -1185.60191265	    147.44882120	    179.99999979	   1808.66750721	     56.69170193	     26.14433564	     10.21446617	     11.09803978	    -45.00000000	    -38.86577780	     45.00000000	    -43.48151653	  -2781.14271171	  -1533.35623735	    138.73744279	    172.48923715	   1088.16161964	     24.03068460	      7.21929172	    -23.03389425
      5.07000000	     38.95484678	      9.50252025	      8.73199782	   -219.18567488	    838.55681737	      6.50878105	     14.86168515	     37.47083077	     36.82515676	     45.00000000	    -45.00000000	   1714.26694863	  -1185.51283207	    147.45080572	    179.99999979	   1808.83036747	     56.80124295	     26.14110120	     10.12111162	     11.12888986	    -45.00000000	    -38.89308797	     45.00000000	    -43.16941564	  -2781.18370668	  -1533.34850716	    138.74367207	    172.46610967	   1088.16517867	     24.54012528	      7.14356132	    -23.09293934
      5.08000000	     38.95513583	      9.37288899	      8.78352189	   -218.49725224	    838.40014800	      6.42617302	     14.89801738	     37.37246112	     36.91130086	     45.00000000	    -45.00000000	   1714.22263609	  -1185.47400633	    147.41772390	    179.99999979	   1808.96862316	     56.95272760	     26.17858500	     10.07476705	     11.08101232	    -45.00000000	    -38.90248619	     45.00000000	    -42.88212369	  -2781.22150272	  -1533.31494120	    138.72703500	    172.40841903	   1088.19798665	     25.01262596	      7.04587864	    -23.14971588
      5.09000000	     38.88246901	      9.29745751	      8.84629914	   -217.78822556	    838.35514298	      6.33378366	     14.89383621	     37.48976522	     36.95175275	     45.00000000	    -45.00000000	   1714.21684271	  -1185.37064339	    147.39184401	    179.99999979	   1809.15741051	     57.11388855	     26.20835063	     10.00042930	     11.08295691	    -45.00000000	    -38.99480244	     45.00000000	    -42.54735987	  -2781.20770013	  -1533.32649568	    138.72930400	    172.33802768	   1088.25231758	     25.46840172	      6.97095105	    -23.21456437
      5.10000000	     38.87769698	      9.08839847	      8.81878591	   -217.03915430	    838.40992213	      6.22706626	     14.93871938	     37.40209637	     37.12934159	     45.00000000	    -45.00000000	   1714.15914606	  -1185.30978747	    147.31528725	    179.99999979	   1809.28202713	     57.30913900	     26.24281367	      9.95042358	     10.95851728	    -45.00000000	    -38.95884310	     45.00000000	    -42.34900943	  -2781.33193885	  -1533.19887690	    138.74726279	    172.18369922	   1088.27693017	     25.94283375	      6.91972725	    -23.29682657
      5.11000000	     38.82588052	      9.13735644	      8.99259992	   -216.21803472	    838.54382307	      6.10154446	     14.89029465	     37.48743032	     37.00763031	     45.00000000	    -45.00000000	   1714.22483399	  -1185.09183407	    147.28480809	    179.99999979	   1809.44873241	     57.48485078	     26.26299479	      9.88430738	     10.99643388	    -45.00000000	    -39.09757980	     45.00000000	    -42.05859105	  -2781.25769919	  -1533.17590313	    138.76065680	    172.05689534	   1088.27449628	     26.37653606	      6.84329018	    -23.34923778
      5.12000000	     38.80788007	      9.08257678	      9.02298981	   -215.29435297	    838.73056409	      5.95490049	     14.69066930	     37.32659120	     36.91517610	     45.00000000	    -45.00000000	   1714.27027606	  -1184.88759226	    147.17799048	    179.99999979	   1809.59899576	     57.66312616	     26.26620592	      9.81951141	     11.04180231	    -45.00000000	    -39.28160842	     45.00000000	    -41.96468518	  -2781.33149562	  -1533.08344814	    138.82781988	    171.83335390	   1088.38302334	     26.81753487	      6.81038312	    -23.45855473
      5.13000000	     38.74849832	      9.15996781	      9.19374377	   -214.23790558	    838.94058168	      5.78703979	     14.49213917	     37.31964702	     37.03998153	     45.00000000	    -45.00000000	   1714.22266786	  -1184.88529492	    147.23184509	    179.99999979	   1809.81766186	     57.84292048	     26.27705399	      9.74117558	     11.23552653	    -45.00000000	    -39.64658445	     45.00000000	    -41.58263879	  -2781.05142261	  -1533.15875928	    138.82804971	    171.65268482	   1088.56130610	     27.27455711	      6.68449768	    -23.52675977
      5.14000000	     38.78617998	      9.06062390	      9.26393938	   -213.03290011	    839.14212768	      5.60236097	     14.60339911	     37.34312659	     37.14301830	     45.00000000	    -45.00000000	   1714.23202717	  -1184.69183957	    147.18438632	    179.99999979	   1809.96300864	     57.97022399	     26.28089083	      9.69372488	     11.07891295	    -45.00000000	    -39.59945228	     45.00000000	    -41.52013323	  -2781.27043726	  -1532.96337709	    138.97476550	    171.40016817	   1088.67097340	     27.68959058	      6.65155686	    -23.63609867
      5.15000000	     38.74104302	      9.10642429	      9.38180140	   -211.65847787	    839.30835313	      5.40616207	     14.46813930	     37.30141930	     37.27679049	     45.00000000	    -45.00000000	   1714.14339698	  -1184.80995850	    147.13219448	    179.99999979	   1810.09215817	     58.07751069	     26.27488551	      9.65121550	     11.29076383	    -45.00000000	    -39.81475200	     45.00000000	    -41.04653057	  -2781.03650872	  -1533.00691164	    138.83930614	    171.16501946	   1088.70999186	     28.10579109	      6.51609089	    -23.65029439
      5.16000000	     38.81686032	      9.02223846	      9.41189546	   -210.11315440	    839.41526116	      5.20733077	     14.62510210	     37.36946844	     37.53461402	     45.00000000	    -45.00000000	   1714.00000785	  -1184.75115062	    146.98312191	    179.99999979	   1810.09992371	     58.15465328	     26.25573701	      9.63862973	     11.23070413	    -45.00000000	    -39.85271702	     45.00000000	    -40.64007356	  -2781.05682243	  -1533.01120335	    138.80167994	    170.83477974	   1088.69207763	     28.53939085	      6.40040437	    -23.66178269
      5.17000000	     38.80282785	      9.04097655	      9.58316062	   -208.39498567	    839.44669899	      5.01391565	     14.57865994	     37.34187831	     37.62360362	     45.00000000	    -45.00000000	   1714.01657089	  -1184.71185683	    146.92811635	    179.99999979	   1810.23333594	     58.13943367	     26.21924890	      9.60991826	     11.22567050	    -45.00000000	    -39.92867298	     45.00000000	    -40.38740171	  -2781.05449036	  -1532.93876382	    138.85268201	    170.47262076	   1088.79419888	     28.87252731	      6.32691693	    -23.70614585
      5.18000000	     38.80758024	      9.09571216	      9.76217204	   -206.50899688	    839.39331120	      4.83315581	     14.50457591	     37.31266533	     37.71373655	     45.00000000	    -45.00000000	   1714.02713340	  -1184.64674084	    146.86129672	    179.99999979	   1810.31857698	     58.06852382	     26.17702448	      9.60294072	     11.29673611	    -45.00000000	    -40.04022842	     45.00000000	    -40.14315093	  -2781.06572224	  -1532.90592496	    138.88270657	    170.11849047	   1088.84535896	     29.12137973	      6.26561461	    -23.72084942
      5.19000000	     38.81459109	      9.17117404	      9.94077391	   -204.46368385	    839.25256653	      4.67025121	     14.47189485	     37.30063994	     37.81202149	     45.00000000	    -45.00000000	   1714.03900881	  -1184.57803777	    146.76886907	    179.99999979	   1810.39783684	     57.93320874	     26.12591129	      9.60975351	     11.35304534	    -45.00000000	    -40.15129872	     45.00000000	    -39.85948270	  -2781.09562313	  -1532.88712045	    138.90663682	    169.76915074	   1088.89510914	     29.27296505	      6.22680801	    -23.72243871
